<svg xmlns="http://www.w3.org/2000/svg" viewBox="0 0 120 110">
  <defs>
    <linearGradient id="golden" x1="0%" y1="0%" x2="100%" y2="100%">
      <stop offset="0%" stop-color="#F2E5B6" />
      <stop offset="45%" stop-color="#D8A550" />
      <stop offset="100%" stop-color="#9C6B2F" />
    </linearGradient>
    <filter id="glow" x="-20%" y="-20%" width="140%" height="140%">
      <feGaussianBlur stdDeviation="3" result="blur" />
      <feMerge>
        <feMergeNode in="blur" />
        <feMergeNode in="SourceGraphic" />
      </feMerge>
    </filter>
  </defs>
  <path d="M60 102c-1.6 0-3.2-.6-4.5-1.7C33.2 82.5 17.4 68.5 9.2 56.1 1 43.8-.8 30.2 6.4 19.6 12.3 10.9 22.4 6 33.2 6c10 0 18.8 4.2 26.8 13 8-8.8 16.8-13 26.8-13 10.8 0 20.9 4.9 26.8 13.6 7.2 10.6 5.4 24.2-3 36.5-8.2 12.4-24 26.4-46.3 44.2-1.3 1.1-2.9 1.7-4.5 1.7z" fill="url(#golden)" filter="url(#glow)" />
  <path d="M89.5 17.5c-8.9 0-15.6 4.9-23.1 14.1l-6.4 8-6.4-8C46.1 22.4 39.4 17.5 30.5 17.5c-7.4 0-14.2 3.7-18.3 10.1-5.3 7.7-4.3 17.6 2.6 28 7.4 11.2 22.3 24.4 43.3 41.8 21-17.4 35.9-30.6 43.3-41.8 6.9-10.4 7.9-20.3 2.6-28-4.1-6.4-10.9-10.1-18.3-10.1z" fill="rgba(255,255,255,0.2)" />
</svg>
